<svg fill="green" xmlns:x="http://ns.adobe.com/Extensibility/1.0/" xmlns:i="http://ns.adobe.com/AdobeIllustrator/10.0/" xmlns:graph="http://ns.adobe.com/Graphs/1.0/" xmlns="http://www.w3.org/2000/svg" xmlns:xlink="http://www.w3.org/1999/xlink" version="1.1" x="0px" y="0px" viewBox="0 0 64 80" enable-background="new 0 0 64 64" xml:space="preserve"><metadata><sfw xmlns="http://ns.adobe.com/SaveForWeb/1.0/"><slices/><sliceSourceBounds height="16384" width="16389" x="-8165" y="-8160" bottomLeftOrigin="true"/><optimizationSettings><targetSettings targetSettingsID="0" fileFormat="PNG24Format"><PNG24Format transparency="true" filtered="false" interlaced="false" noMatteColor="false" matteColor="#FFFFFF"/></targetSettings></optimizationSettings></sfw></metadata><g><g><path d="M32,6c-12.131,0-22,9.869-22,22c0,11.836,19.861,28.809,20.707,29.525C31.08,57.842,31.54,58,32,58    s0.92-0.158,1.293-0.475C34.139,56.809,54,39.836,54,28C54,15.869,44.131,6,32,6z M32,40c-6.617,0-12-5.383-12-12    c0-6.617,5.383-12,12-12c6.617,0,12,5.383,12,12C44,34.617,38.617,40,32,40z"/><path d="M32,20c-4.411,0-8,3.589-8,8s3.589,8,8,8s8-3.589,8-8S36.411,20,32,20z"/></g></g></svg>